<svg width="32" height="32" viewBox="0 0 32 32" fill="none" xmlns="http://www.w3.org/2000/svg">
<rect width="32" height="32" rx="16" fill="#333333"/>
<path d="M7.75 21C7.53333 21 7.35417 20.9292 7.2125 20.7875C7.07083 20.6458 7 20.4667 7 20.25C7 20.0333 7.07083 19.8542 7.2125 19.7125C7.35417 19.5708 7.53333 19.5 7.75 19.5C7.96667 19.5 8.14583 19.5708 8.2875 19.7125C8.42917 19.8542 8.5 20.0333 8.5 20.25C8.5 20.4667 8.42917 20.6458 8.2875 20.7875C8.14583 20.9292 7.96667 21 7.75 21ZM7.75 16.75C7.53333 16.75 7.35417 16.6792 7.2125 16.5375C7.07083 16.3958 7 16.2167 7 16C7 15.7833 7.07083 15.6042 7.2125 15.4625C7.35417 15.3208 7.53333 15.25 7.75 15.25C7.96667 15.25 8.14583 15.3208 8.2875 15.4625C8.42917 15.6042 8.5 15.7833 8.5 16C8.5 16.2167 8.42917 16.3958 8.2875 16.5375C8.14583 16.6792 7.96667 16.75 7.75 16.75ZM7.75 12.5C7.53333 12.5 7.35417 12.4292 7.2125 12.2875C7.07083 12.1458 7 11.9667 7 11.75C7 11.5333 7.07083 11.3542 7.2125 11.2125C7.35417 11.0708 7.53333 11 7.75 11C7.96667 11 8.14583 11.0708 8.2875 11.2125C8.42917 11.3542 8.5 11.5333 8.5 11.75C8.5 11.9667 8.42917 12.1458 8.2875 12.2875C8.14583 12.4292 7.96667 12.5 7.75 12.5ZM11.25 21V19.5H25V21H11.25ZM11.25 16.75V15.25H25V16.75H11.25ZM11.25 12.5V11H25V12.5H11.25Z" fill="white"/>
</svg>
